<?xml version="1.0" encoding="UTF-8" standalone="no"?>
<!DOCTYPE svg PUBLIC "-//W3C//DTD SVG 1.1//EN"
 "http://www.w3.org/Graphics/SVG/1.1/DTD/svg11.dtd">
<!-- Generated by graphviz version 2.40.1 (20161225.0304)
 -->
<!-- Title: dependencies Pages: 1 -->
<svg width="1736pt" height="284pt"
 viewBox="0.00 0.00 1736.00 284.00" xmlns="http://www.w3.org/2000/svg" xmlns:xlink="http://www.w3.org/1999/xlink">
<g id="graph0" class="graph" transform="scale(1 1) rotate(0) translate(4 280)">
<title>dependencies</title>
<polygon fill="#ffffff" stroke="transparent" points="-4,4 -4,-280 1732,-280 1732,4 -4,4"/>
<text text-anchor="start" x="843.0091" y="-42.4" font-family="sans-serif" font-weight="bold" font-size="14.00" fill="#000000">Legend</text>
<polygon fill="#ffffb3" stroke="transparent" points="630,-10 630,-30 650,-30 650,-10 630,-10"/>
<text text-anchor="start" x="653.629" y="-15.4" font-family="sans-serif" font-size="14.00" fill="#000000"> &#160;Declarations</text>
<polygon fill="#8dd3c7" stroke="transparent" points="743,-10 743,-30 763,-30 763,-10 743,-10"/>
<text text-anchor="start" x="766.7251" y="-15.4" font-family="sans-serif" font-size="14.00" fill="#000000"> &#160;Module</text>
<polygon fill="#80b1d3" stroke="transparent" points="829,-10 829,-30 849,-30 849,-10 829,-10"/>
<text text-anchor="start" x="852.7812" y="-15.4" font-family="sans-serif" font-size="14.00" fill="#000000"> &#160;Bootstrap</text>
<polygon fill="#fdb462" stroke="transparent" points="926,-10 926,-30 946,-30 946,-10 926,-10"/>
<text text-anchor="start" x="949.6732" y="-15.4" font-family="sans-serif" font-size="14.00" fill="#000000"> &#160;Providers</text>
<polygon fill="#fb8072" stroke="transparent" points="1022,-10 1022,-30 1042,-30 1042,-10 1022,-10"/>
<text text-anchor="start" x="1045.7258" y="-15.4" font-family="sans-serif" font-size="14.00" fill="#000000"> &#160;Exports</text>
<g id="clust1" class="cluster">
<title>cluster_NbTableSorterModule</title>
<polygon fill="none" stroke="#000000" stroke-dasharray="1,5" points="8,-70 8,-268 1720,-268 1720,-70 8,-70"/>
</g>
<g id="clust2" class="cluster">
<title>cluster_NbTableSorterModule_declarations</title>
<polygon fill="none" stroke="#000000" points="35,-78 35,-130 1694,-130 1694,-78 35,-78"/>
</g>
<g id="clust15" class="cluster">
<title>cluster_NbTableSorterModule_exports</title>
<polygon fill="none" stroke="#000000" points="16,-208 16,-260 1712,-260 1712,-208 16,-208"/>
</g>
<!-- GetPipe -->
<g id="node1" class="node">
<title>GetPipe</title>
<polygon fill="#ffffb3" stroke="#000000" points="1685.5997,-122 1624.4003,-122 1624.4003,-86 1685.5997,-86 1685.5997,-122"/>
<text text-anchor="middle" x="1655" y="-99.8" font-family="Times,serif" font-size="14.00" fill="#000000">GetPipe</text>
</g>
<!-- NbTableSorterModule -->
<g id="node12" class="node">
<title>NbTableSorterModule</title>
<polygon fill="#8dd3c7" stroke="#000000" points="923.238,-187 920.238,-191 899.238,-191 896.238,-187 780.762,-187 780.762,-151 923.238,-151 923.238,-187"/>
<text text-anchor="middle" x="852" y="-164.8" font-family="Times,serif" font-size="14.00" fill="#000000">NbTableSorterModule</text>
</g>
<!-- GetPipe&#45;&gt;NbTableSorterModule -->
<g id="edge1" class="edge">
<title>GetPipe&#45;&gt;NbTableSorterModule</title>
<path fill="none" stroke="#000000" d="M1632.0752,-122.1686C1632.0752,-141.0898 1632.0752,-168 1632.0752,-168 1632.0752,-168 933.2944,-168 933.2944,-168"/>
<polygon fill="#000000" stroke="#000000" points="933.2945,-164.5001 923.2944,-168 933.2944,-171.5001 933.2945,-164.5001"/>
</g>
<!-- IsObjectPipe -->
<g id="node2" class="node">
<title>IsObjectPipe</title>
<polygon fill="#ffffb3" stroke="#000000" points="1606.3105,-122 1517.6895,-122 1517.6895,-86 1606.3105,-86 1606.3105,-122"/>
<text text-anchor="middle" x="1562" y="-99.8" font-family="Times,serif" font-size="14.00" fill="#000000">IsObjectPipe</text>
</g>
<!-- IsObjectPipe&#45;&gt;NbTableSorterModule -->
<g id="edge2" class="edge">
<title>IsObjectPipe&#45;&gt;NbTableSorterModule</title>
<path fill="none" stroke="#000000" d="M1523.97,-122.302C1523.97,-140.2699 1523.97,-165 1523.97,-165 1523.97,-165 933.2764,-165 933.2764,-165"/>
<polygon fill="#000000" stroke="#000000" points="933.2764,-161.5001 923.2764,-165 933.2764,-168.5001 933.2764,-161.5001"/>
</g>
<!-- IsStringPipe -->
<g id="node3" class="node">
<title>IsStringPipe</title>
<polygon fill="#ffffb3" stroke="#000000" points="1499.7177,-122 1414.2823,-122 1414.2823,-86 1499.7177,-86 1499.7177,-122"/>
<text text-anchor="middle" x="1457" y="-99.8" font-family="Times,serif" font-size="14.00" fill="#000000">IsStringPipe</text>
</g>
<!-- IsStringPipe&#45;&gt;NbTableSorterModule -->
<g id="edge3" class="edge">
<title>IsStringPipe&#45;&gt;NbTableSorterModule</title>
<path fill="none" stroke="#000000" d="M1419.0163,-122.0352C1419.0163,-138.7344 1419.0163,-161 1419.0163,-161 1419.0163,-161 933.2389,-161 933.2389,-161"/>
<polygon fill="#000000" stroke="#000000" points="933.2389,-157.5001 923.2389,-161 933.2388,-164.5001 933.2389,-157.5001"/>
</g>
<!-- NbTableSorterHeaderDirective -->
<g id="node4" class="node">
<title>NbTableSorterHeaderDirective</title>
<polygon fill="#ffffb3" stroke="#000000" points="1396.6821,-122 1205.3179,-122 1205.3179,-86 1396.6821,-86 1396.6821,-122"/>
<text text-anchor="middle" x="1301" y="-99.8" font-family="Times,serif" font-size="14.00" fill="#000000">NbTableSorterHeaderDirective</text>
</g>
<!-- NbTableSorterHeaderDirective&#45;&gt;NbTableSorterModule -->
<g id="edge4" class="edge">
<title>NbTableSorterHeaderDirective&#45;&gt;NbTableSorterModule</title>
<path fill="none" stroke="#000000" d="M1334.697,-122.2819C1334.697,-137.9478 1334.697,-158 1334.697,-158 1334.697,-158 933.4833,-158 933.4833,-158"/>
<polygon fill="#000000" stroke="#000000" points="933.4834,-154.5001 923.4833,-158 933.4833,-161.5001 933.4834,-154.5001"/>
</g>
<!-- NbTableSorterNotFoundDirective -->
<g id="node5" class="node">
<title>NbTableSorterNotFoundDirective</title>
<polygon fill="#ffffb3" stroke="#000000" points="1187.0506,-122 978.9494,-122 978.9494,-86 1187.0506,-86 1187.0506,-122"/>
<text text-anchor="middle" x="1083" y="-99.8" font-family="Times,serif" font-size="14.00" fill="#000000">NbTableSorterNotFoundDirective</text>
</g>
<!-- NbTableSorterNotFoundDirective&#45;&gt;NbTableSorterModule -->
<g id="edge5" class="edge">
<title>NbTableSorterNotFoundDirective&#45;&gt;NbTableSorterModule</title>
<path fill="none" stroke="#000000" d="M1118.4251,-122.1243C1118.4251,-136.7832 1118.4251,-155 1118.4251,-155 1118.4251,-155 933.397,-155 933.397,-155"/>
<polygon fill="#000000" stroke="#000000" points="933.3971,-151.5001 923.397,-155 933.397,-158.5001 933.3971,-151.5001"/>
</g>
<!-- NbTableSorterPaginatorComponent -->
<g id="node6" class="node">
<title>NbTableSorterPaginatorComponent</title>
<polygon fill="#ffffb3" stroke="#000000" points="961.1741,-122 742.8259,-122 742.8259,-86 961.1741,-86 961.1741,-122"/>
<text text-anchor="middle" x="852" y="-99.8" font-family="Times,serif" font-size="14.00" fill="#000000">NbTableSorterPaginatorComponent</text>
</g>
<!-- NbTableSorterPaginatorComponent&#45;&gt;NbTableSorterModule -->
<g id="edge6" class="edge">
<title>NbTableSorterPaginatorComponent&#45;&gt;NbTableSorterModule</title>
<path fill="none" stroke="#000000" d="M852,-122.1061C852,-122.1061 852,-140.991 852,-140.991"/>
<polygon fill="#000000" stroke="#000000" points="848.5001,-140.9909 852,-150.991 855.5001,-140.991 848.5001,-140.9909"/>
</g>
<!-- NbTableSorterRowDirective -->
<g id="node7" class="node">
<title>NbTableSorterRowDirective</title>
<polygon fill="#ffffb3" stroke="#000000" points="724.7142,-122 547.2858,-122 547.2858,-86 724.7142,-86 724.7142,-122"/>
<text text-anchor="middle" x="636" y="-99.8" font-family="Times,serif" font-size="14.00" fill="#000000">NbTableSorterRowDirective</text>
</g>
<!-- NbTableSorterRowDirective&#45;&gt;NbTableSorterModule -->
<g id="edge7" class="edge">
<title>NbTableSorterRowDirective&#45;&gt;NbTableSorterModule</title>
<path fill="none" stroke="#000000" d="M664.7857,-122.1243C664.7857,-136.7832 664.7857,-155 664.7857,-155 664.7857,-155 770.6882,-155 770.6882,-155"/>
<polygon fill="#000000" stroke="#000000" points="770.6883,-158.5001 780.6882,-155 770.6882,-151.5001 770.6883,-158.5001"/>
</g>
<!-- PaginatePipe -->
<g id="node8" class="node">
<title>PaginatePipe</title>
<polygon fill="#ffffb3" stroke="#000000" points="529.5955,-122 440.4045,-122 440.4045,-86 529.5955,-86 529.5955,-122"/>
<text text-anchor="middle" x="485" y="-99.8" font-family="Times,serif" font-size="14.00" fill="#000000">PaginatePipe</text>
</g>
<!-- PaginatePipe&#45;&gt;NbTableSorterModule -->
<g id="edge8" class="edge">
<title>PaginatePipe&#45;&gt;NbTableSorterModule</title>
<path fill="none" stroke="#000000" d="M496.3492,-122.2819C496.3492,-137.9478 496.3492,-158 496.3492,-158 496.3492,-158 770.4566,-158 770.4566,-158"/>
<polygon fill="#000000" stroke="#000000" points="770.4566,-161.5001 780.4566,-158 770.4565,-154.5001 770.4566,-161.5001"/>
</g>
<!-- TableSorterComponent -->
<g id="node9" class="node">
<title>TableSorterComponent</title>
<polygon fill="#ffffb3" stroke="#000000" points="422.9144,-122 275.0856,-122 275.0856,-86 422.9144,-86 422.9144,-122"/>
<text text-anchor="middle" x="349" y="-99.8" font-family="Times,serif" font-size="14.00" fill="#000000">TableSorterComponent</text>
</g>
<!-- TableSorterComponent&#45;&gt;NbTableSorterModule -->
<g id="edge9" class="edge">
<title>TableSorterComponent&#45;&gt;NbTableSorterModule</title>
<path fill="none" stroke="#000000" d="M418.0819,-122.0352C418.0819,-138.7344 418.0819,-161 418.0819,-161 418.0819,-161 770.3473,-161 770.3473,-161"/>
<polygon fill="#000000" stroke="#000000" points="770.3473,-164.5001 780.3473,-161 770.3472,-157.5001 770.3473,-164.5001"/>
</g>
<!-- UcfirstPipe -->
<g id="node10" class="node">
<title>UcfirstPipe</title>
<polygon fill="#ffffb3" stroke="#000000" points="256.7564,-122 177.2436,-122 177.2436,-86 256.7564,-86 256.7564,-122"/>
<text text-anchor="middle" x="217" y="-99.8" font-family="Times,serif" font-size="14.00" fill="#000000">UcfirstPipe</text>
</g>
<!-- UcfirstPipe&#45;&gt;NbTableSorterModule -->
<g id="edge10" class="edge">
<title>UcfirstPipe&#45;&gt;NbTableSorterModule</title>
<path fill="none" stroke="#000000" d="M250.753,-122.302C250.753,-140.2699 250.753,-165 250.753,-165 250.753,-165 770.668,-165 770.668,-165"/>
<polygon fill="#000000" stroke="#000000" points="770.6681,-168.5001 780.668,-165 770.668,-161.5001 770.6681,-168.5001"/>
</g>
<!-- ValueOrDatePipe -->
<g id="node11" class="node">
<title>ValueOrDatePipe</title>
<polygon fill="#ffffb3" stroke="#000000" points="158.5088,-122 43.4912,-122 43.4912,-86 158.5088,-86 158.5088,-122"/>
<text text-anchor="middle" x="101" y="-99.8" font-family="Times,serif" font-size="14.00" fill="#000000">ValueOrDatePipe</text>
</g>
<!-- ValueOrDatePipe&#45;&gt;NbTableSorterModule -->
<g id="edge11" class="edge">
<title>ValueOrDatePipe&#45;&gt;NbTableSorterModule</title>
<path fill="none" stroke="#000000" d="M151.1289,-122.1686C151.1289,-141.0898 151.1289,-168 151.1289,-168 151.1289,-168 770.6143,-168 770.6143,-168"/>
<polygon fill="#000000" stroke="#000000" points="770.6143,-171.5001 780.6143,-168 770.6142,-164.5001 770.6143,-171.5001"/>
</g>
<!-- GetPipe  -->
<g id="node13" class="node">
<title>GetPipe </title>
<polygon fill="#fb8072" stroke="#000000" points="1704.1008,-252 1639.8992,-252 1639.8992,-216 1704.1008,-216 1704.1008,-252"/>
<text text-anchor="middle" x="1672" y="-229.8" font-family="Times,serif" font-size="14.00" fill="#000000">GetPipe </text>
</g>
<!-- NbTableSorterModule&#45;&gt;GetPipe  -->
<g id="edge12" class="edge">
<title>NbTableSorterModule&#45;&gt;GetPipe </title>
<path fill="none" stroke="#000000" stroke-dasharray="5,2" d="M923.582,-171C1121.6814,-171 1662.625,-171 1662.625,-171 1662.625,-171 1662.625,-205.7778 1662.625,-205.7778"/>
<polygon fill="#000000" stroke="#000000" points="1659.1251,-205.7778 1662.625,-215.7778 1666.1251,-205.7778 1659.1251,-205.7778"/>
</g>
<!-- IsObjectPipe  -->
<g id="node14" class="node">
<title>IsObjectPipe </title>
<polygon fill="#fb8072" stroke="#000000" points="1621.8102,-252 1530.1898,-252 1530.1898,-216 1621.8102,-216 1621.8102,-252"/>
<text text-anchor="middle" x="1576" y="-229.8" font-family="Times,serif" font-size="14.00" fill="#000000">IsObjectPipe </text>
</g>
<!-- NbTableSorterModule&#45;&gt;IsObjectPipe  -->
<g id="edge13" class="edge">
<title>NbTableSorterModule&#45;&gt;IsObjectPipe </title>
<path fill="none" stroke="#000000" stroke-dasharray="5,2" d="M923.2829,-174C1104.4183,-174 1568.125,-174 1568.125,-174 1568.125,-174 1568.125,-205.998 1568.125,-205.998"/>
<polygon fill="#000000" stroke="#000000" points="1564.6251,-205.998 1568.125,-215.998 1571.6251,-205.9981 1564.6251,-205.998"/>
</g>
<!-- IsStringPipe  -->
<g id="node15" class="node">
<title>IsStringPipe </title>
<polygon fill="#fb8072" stroke="#000000" points="1512.2178,-252 1423.7822,-252 1423.7822,-216 1512.2178,-216 1512.2178,-252"/>
<text text-anchor="middle" x="1468" y="-229.8" font-family="Times,serif" font-size="14.00" fill="#000000">IsStringPipe </text>
</g>
<!-- NbTableSorterModule&#45;&gt;IsStringPipe  -->
<g id="edge14" class="edge">
<title>NbTableSorterModule&#45;&gt;IsStringPipe </title>
<path fill="none" stroke="#000000" stroke-dasharray="5,2" d="M923.4244,-178C1084.4057,-178 1461.625,-178 1461.625,-178 1461.625,-178 1461.625,-205.973 1461.625,-205.973"/>
<polygon fill="#000000" stroke="#000000" points="1458.1251,-205.973 1461.625,-215.973 1465.1251,-205.973 1458.1251,-205.973"/>
</g>
<!-- NbTableSorterHeaderDirective  -->
<g id="node16" class="node">
<title>NbTableSorterHeaderDirective </title>
<polygon fill="#fb8072" stroke="#000000" points="1405.6819,-252 1210.3181,-252 1210.3181,-216 1405.6819,-216 1405.6819,-252"/>
<text text-anchor="middle" x="1308" y="-229.8" font-family="Times,serif" font-size="14.00" fill="#000000">NbTableSorterHeaderDirective </text>
</g>
<!-- NbTableSorterModule&#45;&gt;NbTableSorterHeaderDirective  -->
<g id="edge15" class="edge">
<title>NbTableSorterModule&#45;&gt;NbTableSorterHeaderDirective </title>
<path fill="none" stroke="#000000" stroke-dasharray="5,2" d="M923.3411,-181C1043.3267,-181 1272.553,-181 1272.553,-181 1272.553,-181 1272.553,-205.7604 1272.553,-205.7604"/>
<polygon fill="#000000" stroke="#000000" points="1269.0531,-205.7604 1272.553,-215.7604 1276.0531,-205.7604 1269.0531,-205.7604"/>
</g>
<!-- NbTableSorterNotFoundDirective  -->
<g id="node17" class="node">
<title>NbTableSorterNotFoundDirective </title>
<polygon fill="#fb8072" stroke="#000000" points="1192.5511,-252 981.4489,-252 981.4489,-216 1192.5511,-216 1192.5511,-252"/>
<text text-anchor="middle" x="1087" y="-229.8" font-family="Times,serif" font-size="14.00" fill="#000000">NbTableSorterNotFoundDirective </text>
</g>
<!-- NbTableSorterModule&#45;&gt;NbTableSorterNotFoundDirective  -->
<g id="edge16" class="edge">
<title>NbTableSorterModule&#45;&gt;NbTableSorterNotFoundDirective </title>
<path fill="none" stroke="#000000" stroke-dasharray="5,2" d="M923.4193,-184C980.0839,-184 1049.8249,-184 1049.8249,-184 1049.8249,-184 1049.8249,-205.9489 1049.8249,-205.9489"/>
<polygon fill="#000000" stroke="#000000" points="1046.325,-205.9488 1049.8249,-215.9489 1053.325,-205.9489 1046.325,-205.9488"/>
</g>
<!-- NbTableSorterPaginatorComponent  -->
<g id="node18" class="node">
<title>NbTableSorterPaginatorComponent </title>
<polygon fill="#fb8072" stroke="#000000" points="962.6742,-252 741.3258,-252 741.3258,-216 962.6742,-216 962.6742,-252"/>
<text text-anchor="middle" x="852" y="-229.8" font-family="Times,serif" font-size="14.00" fill="#000000">NbTableSorterPaginatorComponent </text>
</g>
<!-- NbTableSorterModule&#45;&gt;NbTableSorterPaginatorComponent  -->
<g id="edge17" class="edge">
<title>NbTableSorterModule&#45;&gt;NbTableSorterPaginatorComponent </title>
<path fill="none" stroke="#000000" stroke-dasharray="5,2" d="M852,-187.1061C852,-187.1061 852,-205.991 852,-205.991"/>
<polygon fill="#000000" stroke="#000000" points="848.5001,-205.9909 852,-215.991 855.5001,-205.991 848.5001,-205.9909"/>
</g>
<!-- NbTableSorterRowDirective  -->
<g id="node19" class="node">
<title>NbTableSorterRowDirective </title>
<polygon fill="#fb8072" stroke="#000000" points="723.7141,-252 542.2859,-252 542.2859,-216 723.7141,-216 723.7141,-252"/>
<text text-anchor="middle" x="633" y="-229.8" font-family="Times,serif" font-size="14.00" fill="#000000">NbTableSorterRowDirective </text>
</g>
<!-- NbTableSorterModule&#45;&gt;NbTableSorterRowDirective  -->
<g id="edge18" class="edge">
<title>NbTableSorterModule&#45;&gt;NbTableSorterRowDirective </title>
<path fill="none" stroke="#000000" stroke-dasharray="5,2" d="M780.5058,-184C707.8631,-184 605.9643,-184 605.9643,-184 605.9643,-184 605.9643,-205.9489 605.9643,-205.9489"/>
<polygon fill="#000000" stroke="#000000" points="602.4644,-205.9488 605.9643,-215.9489 609.4644,-205.9489 602.4644,-205.9488"/>
</g>
<!-- PaginatePipe  -->
<g id="node20" class="node">
<title>PaginatePipe </title>
<polygon fill="#fb8072" stroke="#000000" points="524.0963,-252 431.9037,-252 431.9037,-216 524.0963,-216 524.0963,-252"/>
<text text-anchor="middle" x="478" y="-229.8" font-family="Times,serif" font-size="14.00" fill="#000000">PaginatePipe </text>
</g>
<!-- NbTableSorterModule&#45;&gt;PaginatePipe  -->
<g id="edge19" class="edge">
<title>NbTableSorterModule&#45;&gt;PaginatePipe </title>
<path fill="none" stroke="#000000" stroke-dasharray="5,2" d="M780.7469,-181C669.8129,-181 468.4008,-181 468.4008,-181 468.4008,-181 468.4008,-205.7604 468.4008,-205.7604"/>
<polygon fill="#000000" stroke="#000000" points="464.9009,-205.7604 468.4008,-215.7604 471.9009,-205.7604 464.9009,-205.7604"/>
</g>
<!-- TableSorterComponent  -->
<g id="node21" class="node">
<title>TableSorterComponent </title>
<polygon fill="#fb8072" stroke="#000000" points="413.4138,-252 262.5862,-252 262.5862,-216 413.4138,-216 413.4138,-252"/>
<text text-anchor="middle" x="338" y="-229.8" font-family="Times,serif" font-size="14.00" fill="#000000">TableSorterComponent </text>
</g>
<!-- NbTableSorterModule&#45;&gt;TableSorterComponent  -->
<g id="edge20" class="edge">
<title>NbTableSorterModule&#45;&gt;TableSorterComponent </title>
<path fill="none" stroke="#000000" stroke-dasharray="5,2" d="M780.6146,-178C640.7979,-178 344.375,-178 344.375,-178 344.375,-178 344.375,-205.973 344.375,-205.973"/>
<polygon fill="#000000" stroke="#000000" points="340.8751,-205.973 344.375,-215.973 347.8751,-205.973 340.8751,-205.973"/>
</g>
<!-- UcfirstPipe  -->
<g id="node22" class="node">
<title>UcfirstPipe </title>
<polygon fill="#fb8072" stroke="#000000" points="244.7564,-252 161.2436,-252 161.2436,-216 244.7564,-216 244.7564,-252"/>
<text text-anchor="middle" x="203" y="-229.8" font-family="Times,serif" font-size="14.00" fill="#000000">UcfirstPipe </text>
</g>
<!-- NbTableSorterModule&#45;&gt;UcfirstPipe  -->
<g id="edge21" class="edge">
<title>NbTableSorterModule&#45;&gt;UcfirstPipe </title>
<path fill="none" stroke="#000000" stroke-dasharray="5,2" d="M780.6302,-174C613.5177,-174 210.875,-174 210.875,-174 210.875,-174 210.875,-205.998 210.875,-205.998"/>
<polygon fill="#000000" stroke="#000000" points="207.3751,-205.998 210.875,-215.998 214.3751,-205.9981 207.3751,-205.998"/>
</g>
<!-- ValueOrDatePipe  -->
<g id="node23" class="node">
<title>ValueOrDatePipe </title>
<polygon fill="#fb8072" stroke="#000000" points="143.5078,-252 24.4922,-252 24.4922,-216 143.5078,-216 143.5078,-252"/>
<text text-anchor="middle" x="84" y="-229.8" font-family="Times,serif" font-size="14.00" fill="#000000">ValueOrDatePipe </text>
</g>
<!-- NbTableSorterModule&#45;&gt;ValueOrDatePipe  -->
<g id="edge22" class="edge">
<title>NbTableSorterModule&#45;&gt;ValueOrDatePipe </title>
<path fill="none" stroke="#000000" stroke-dasharray="5,2" d="M780.6304,-171C591.7812,-171 93.375,-171 93.375,-171 93.375,-171 93.375,-205.7778 93.375,-205.7778"/>
<polygon fill="#000000" stroke="#000000" points="89.8751,-205.7778 93.375,-215.7778 96.8751,-205.7778 89.8751,-205.7778"/>
</g>
</g>
</svg>
